<svg width="298" height="214" viewBox="0 0 298 214" fill="none" xmlns="http://www.w3.org/2000/svg">
<g id="illus">
<path id="red1" d="M54 21C54 9.40202 63.402 0 75 0H298V42H75C63.402 42 54 32.598 54 21V21Z" fill="#D05353"/>
<path id="red2" d="M124 78C124 66.402 133.402 57 145 57H298V99H145C133.402 99 124 89.598 124 78V78Z" fill="#D05353"/>
<path id="yellow1" d="M0 136C0 124.402 9.40202 115 21 115H298V157H21C9.40202 157 0 147.598 0 136V136Z" fill="#CEB21D"/>
<path id="red4" d="M73 193C73 181.402 82.402 172 94 172H298V214H94C82.402 214 73 204.598 73 193V193Z" fill="#D05353"/>
</g>
</svg>
